<?xml version="1.0" encoding="UTF-8" standalone="no"?>
<svg
   xmlns:dc="http://purl.org/dc/elements/1.1/"
   xmlns:cc="http://creativecommons.org/ns#"
   xmlns:rdf="http://www.w3.org/1999/02/22-rdf-syntax-ns#"
   xmlns:svg="http://www.w3.org/2000/svg"
   xmlns="http://www.w3.org/2000/svg"
   xmlns:sodipodi="http://sodipodi.sourceforge.net/DTD/sodipodi-0.dtd"
   xmlns:inkscape="http://www.inkscape.org/namespaces/inkscape"
   viewBox="0 0 16 16"
   version="1.1"
   id="svg4"
   sodipodi:docname="gears.svg"
   inkscape:version="0.92.3 (2405546, 2018-03-11)">
  <metadata
     id="metadata10">
    <rdf:RDF>
      <cc:Work
         rdf:about="">
        <dc:format>image/svg+xml</dc:format>
        <dc:type
           rdf:resource="http://purl.org/dc/dcmitype/StillImage" />
      </cc:Work>
    </rdf:RDF>
  </metadata>
  <defs
     id="defs8" />
  <sodipodi:namedview
     pagecolor="#ffffff"
     bordercolor="#666666"
     borderopacity="1"
     objecttolerance="10"
     gridtolerance="10"
     guidetolerance="10"
     inkscape:pageopacity="0"
     inkscape:pageshadow="2"
     inkscape:window-width="965"
     inkscape:window-height="839"
     id="namedview6"
     showgrid="false"
     inkscape:zoom="14.75"
     inkscape:cx="8"
     inkscape:cy="8"
     inkscape:window-x="0"
     inkscape:window-y="27"
     inkscape:window-maximized="0"
     inkscape:current-layer="svg4" />
  <path
     style="line-height:normal;text-indent:0;text-align:start;text-decoration-line:none;text-decoration-style:solid;text-decoration-color:#000;text-transform:none;block-progression:tb;isolation:auto;mix-blend-mode:normal"
     d="M 6.5703125 1 L 6.328125 2.2871094 C 5.3980983 2.560654 4.5707986 3.0455151 3.8886719 3.6972656 L 2.6523438 3.2617188 L 1.2226562 5.7382812 L 2.2109375 6.5859375 C 2.0990138 7.0437491 2 7.5082765 2 8 C 2 8.4917235 2.0990138 8.9562509 2.2109375 9.4140625 L 1.2226562 10.261719 L 2.6523438 12.738281 L 3.8867188 12.302734 C 4.5693943 12.955339 5.3970284 13.439282 6.328125 13.712891 L 6.5703125 15 L 9.4296875 15 L 9.671875 13.712891 C 10.601902 13.439346 11.429201 12.954485 12.111328 12.302734 L 13.345703 12.738281 L 14.777344 10.261719 L 13.787109 9.4140625 C 13.899454 8.9563303 14 8.4912112 14 8 C 14 7.5082765 13.900987 7.0437491 13.789062 6.5859375 L 14.777344 5.7382812 L 13.347656 3.2617188 L 12.113281 3.6972656 C 11.430606 3.0446606 10.602972 2.5607183 9.671875 2.2871094 L 9.4296875 1 L 6.5703125 1 z M 7.4003906 2 L 8.5996094 2 L 8.7988281 3.0566406 L 9.1191406 3.1308594 C 10.110577 3.3580444 10.985598 3.8769553 11.65625 4.5976562 L 11.880859 4.8378906 L 12.896484 4.4804688 L 13.496094 5.5195312 L 12.683594 6.2167969 L 12.779297 6.5292969 C 12.921975 6.9936721 13 7.4873256 13 8 C 13 8.5126744 12.92272 9.0049023 12.779297 9.46875 L 12.681641 9.7832031 L 13.496094 10.480469 L 12.896484 11.519531 L 11.878906 11.162109 L 11.65625 11.402344 C 10.985598 12.123045 10.108624 12.641955 9.1171875 12.869141 L 8.7988281 12.943359 L 8.5996094 14 L 7.4003906 14 L 7.2011719 12.943359 L 6.8808594 12.869141 C 5.8894231 12.641955 5.0144023 12.123045 4.34375 11.402344 L 4.1191406 11.162109 L 3.1035156 11.519531 L 2.5039062 10.480469 L 3.3164062 9.7832031 L 3.2207031 9.4707031 C 3.0780281 9.0063279 3 8.5126744 3 8 C 3 7.4873256 3.0780282 6.9936721 3.2207031 6.5292969 L 3.3164062 6.2167969 L 2.5039062 5.5195312 L 3.1035156 4.4804688 L 4.1210938 4.8378906 L 4.34375 4.5976562 C 5.0144023 3.8769553 5.8913762 3.3580446 6.8828125 3.1308594 L 7.2011719 3.0566406 L 7.4003906 2 z M 8 5 C 6.3489059 5 5 6.3489059 5 8 C 5 9.6510941 6.3489059 11 8 11 C 9.6510941 11 11 9.6510941 11 8 C 11 6.3489059 9.6510941 5 8 5 z M 8 6 C 9.1109059 6 10 6.8890941 10 8 C 10 9.1109059 9.1109059 10 8 10 C 6.8890941 10 6 9.1109059 6 8 C 6 6.8890941 6.8890941 6 8 6 z"
     font-weight="400"
     font-family="sans-serif"
     white-space="normal"
     overflow="visible"
     id="path2" />
  <path
     style="opacity:1;fill:#f9f9f9;fill-opacity:1;stroke:#000000;stroke-width:0.14477512;stroke-miterlimit:4;stroke-dasharray:none;stroke-opacity:1"
     d="M 6.5842219,14.868177 C 6.5651301,14.818424 6.5112382,14.540475 6.4644622,14.250513 6.388989,13.782658 6.3595849,13.715484 6.2032667,13.653819 5.5845642,13.40975 4.7160536,12.937016 4.3571243,12.648956 4.1261111,12.463556 3.8985487,12.311864 3.8514302,12.311864 c -0.047118,0 -0.3317301,0.08707 -0.6324702,0.193497 L 2.6721599,12.698859 1.9937071,11.526439 C 1.620558,10.881608 1.3152542,10.326228 1.3152542,10.292262 c 0,-0.04982 0.2856191,-0.3127318 0.8938867,-0.8228186 0.025536,-0.021414 0.00313,-0.2219858 -0.049788,-0.4457146 C 2.0391641,8.5156068 2.0373134,7.5292456 2.1555149,6.9785102 l 0.089735,-0.4181 -0.464998,-0.3873383 C 1.5245032,5.9600359 1.3152542,5.7534913 1.3152542,5.7140838 c 0,-0.039408 0.1870739,-0.3939094 0.4157196,-0.7877821 C 1.9596196,4.5324289 2.265187,4.0057151 2.4100125,3.7558264 L 2.6733315,3.3014833 3.279394,3.5122425 3.8854565,3.7230018 4.1766266,3.4847628 C 4.6640939,3.0859108 5.2536384,2.7344249 5.8223048,2.503611 L 6.3632537,2.2840472 6.4473151,1.8233795 C 6.4935488,1.5700123 6.5483155,1.2934511 6.5690188,1.208799 l 0.037642,-0.1539129 1.4044006,0.01832 1.4044,0.01832 0.1117064,0.5968383 c 0.061439,0.3282611 0.1227899,0.6049916 0.136337,0.6149566 0.013546,0.00997 0.2076813,0.086376 0.4314102,0.1698021 0.559168,0.2085078 1.166122,0.5567498 1.632475,0.936638 l 0.3919,0.3192397 0.601857,-0.2143496 0.601858,-0.2143495 0.148667,0.2503479 c 0.08177,0.1376913 0.398075,0.6780049 0.702907,1.2006969 l 0.55424,0.9503491 -0.216711,0.2033898 c -0.119191,0.1118645 -0.334831,0.3054449 -0.4792,0.4301788 l -0.262488,0.2267889 0.08776,0.4850755 c 0.112712,0.6229823 0.112782,1.3107345 2.03e-4,1.9059752 l -0.08923,0.4717471 0.479013,0.430019 0.479012,0.4300181 -0.640095,1.098234 c -0.352052,0.60403 -0.667018,1.142978 -0.699923,1.197663 -0.05114,0.085 -0.148659,0.07104 -0.672007,-0.09621 l -0.61218,-0.19564 -0.307557,0.252019 c -0.441035,0.361396 -1.084546,0.737606 -1.6327,0.954513 -0.2610169,0.103285 -0.4873179,0.199597 -0.5028915,0.214027 -0.015574,0.01443 -0.077205,0.293155 -0.1369573,0.61939 l -0.108642,0.593153 -1.3976434,0.0183 c -1.115554,0.01461 -1.4046494,4.3e-5 -1.4323557,-0.07216 z M 8.6994671,13.66446 c 0.040378,-0.188276 0.073414,-0.3981 0.073414,-0.466276 0,-0.171867 0.1026094,-0.234335 0.608564,-0.370487 0.6883949,-0.185246 1.4381939,-0.612949 2.0088909,-1.145916 l 0.510243,-0.476511 0.502806,0.177251 0.502806,0.177251 0.272803,-0.467104 c 0.150042,-0.256907 0.288655,-0.508414 0.30803,-0.558905 0.02105,-0.05485 -0.125063,-0.224253 -0.36303,-0.420893 L 12.725737,9.7837756 12.860342,9.3020569 c 0.186821,-0.6685796 0.187305,-1.9139179 0.001,-2.6030192 l -0.133598,-0.4941826 0.39519,-0.3193767 c 0.217355,-0.1756572 0.395304,-0.3388749 0.395443,-0.3627061 3.39e-4,-0.053383 -0.51489,-0.9396112 -0.589763,-1.0144834 -0.02978,-0.029782 -0.270771,0.023062 -0.535532,0.117431 L 11.911711,4.7973008 11.545684,4.4406504 C 10.998098,3.9070871 10.319597,3.4999064 9.5209973,3.2255961 L 8.8114861,2.9818869 8.7177288,2.457979 8.6239715,1.9340711 8.0035112,1.9534762 7.3830508,1.9728814 7.2853692,2.4813559 C 7.2316443,2.7610169 7.1825997,2.9981972 7.1763812,3.0084231 7.1701628,3.018649 6.940378,3.0892823 6.6657487,3.165386 5.9141889,3.3736538 5.1787658,3.7876378 4.5997443,4.32838 L 4.09314,4.8014926 3.6155727,4.6244751 C 3.3529107,4.5271155 3.1255354,4.4474576 3.1102943,4.4474576 c -0.015241,0 -0.1664544,0.2364407 -0.3360294,0.5254238 L 2.4659468,5.4983051 2.8689226,5.8711864 3.2718985,6.2440678 3.1351945,6.7525424 c -0.1869088,0.6952129 -0.1862939,1.8065471 0.00139,2.5084745 0.1288403,0.4818611 0.1297981,0.5137973 0.0183,0.6101695 -0.064711,0.055932 -0.248142,0.2134246 -0.4076245,0.3499826 l -0.2899682,0.248289 0.3130575,0.542749 0.3130574,0.54275 0.5059309,-0.170105 0.5059308,-0.170104 0.4652377,0.429914 c 0.7085614,0.654764 1.4763736,1.049398 2.5580281,1.314754 0.040955,0.01005 0.1118169,0.249815 0.1574699,0.532816 l 0.083005,0.514548 H 7.992532 8.626054 l 0.073415,-0.34232 z"
     id="path4520"
     inkscape:connector-curvature="0" />
  <path
     style="opacity:1;fill:#f9f9f9;fill-opacity:1;stroke:#000000;stroke-width:0.14477512;stroke-miterlimit:4;stroke-dasharray:none;stroke-opacity:1"
     d="M 7.1296237,10.82428 C 4.9587343,10.130302 4.3325222,7.3972374 5.9893205,5.8474966 6.504118,5.3659639 7.1090439,5.1066022 7.8022125,5.0702201 8.9289172,5.0110832 9.8174782,5.4491985 10.46935,6.385283 11.0056,7.1553363 11.097988,8.3371355 10.690045,9.2083613 10.447576,9.7261935 9.9667887,10.276074 9.5354984,10.528827 8.8188824,10.948792 7.8798524,11.064109 7.1296237,10.82428 Z M 8.8963291,9.7987564 C 9.6375524,9.4283627 10.022217,8.7814706 10.009654,7.9264734 9.989697,6.5682837 8.6405468,5.6559619 7.3078447,6.0994574 5.9896107,6.5381381 5.5595508,8.2691859 6.4938913,9.3757269 6.5943916,9.4947496 6.8633205,9.6854275 7.0915111,9.7994557 7.4386464,9.9729213 7.5859058,10.00678 7.9932203,10.00678 c 0.4076714,0 0.5544974,-0.03382 0.9031088,-0.2080236 z"
     id="path4522"
     inkscape:connector-curvature="0" />
</svg>
