<?xml version="1.0" encoding="UTF-8" standalone="no"?>
<svg
   xmlns:dc="http://purl.org/dc/elements/1.1/"
   xmlns:cc="http://creativecommons.org/ns#"
   xmlns:rdf="http://www.w3.org/1999/02/22-rdf-syntax-ns#"
   xmlns:svg="http://www.w3.org/2000/svg"
   xmlns="http://www.w3.org/2000/svg"
   xmlns:sodipodi="http://sodipodi.sourceforge.net/DTD/sodipodi-0.dtd"
   xmlns:inkscape="http://www.inkscape.org/namespaces/inkscape"
   id="svg3168"
   sodipodi:docname="gears.svg"
   viewBox="0 0 25 25"
   version="1.1"
   inkscape:version="0.92.3 (2405546, 2018-03-11)"
   width="25"
   height="25">
  <defs
     id="defs3170">
    <radialGradient
       id="radialGradient3814"
       gradientUnits="userSpaceOnUse"
       cy="383.81"
       cx="314.62"
       gradientTransform="matrix(0.09414791,0.06077318,-0.06246278,0.09676751,234.23643,403.00093)"
       r="86.398003"
       inkscape:collect="always">
      <stop
         id="stop3808"
         style="stop-color:#181818"
         offset="0" />
      <stop
         id="stop3810"
         style="stop-color:#7b4a4a;stop-opacity:0"
         offset="1" />
    </radialGradient>
  </defs>
  <sodipodi:namedview
     id="base"
     bordercolor="#666666"
     inkscape:pageshadow="2"
     inkscape:window-y="27"
     fit-margin-left="1"
     pagecolor="#ffffff"
     inkscape:window-height="1023"
     inkscape:window-maximized="0"
     inkscape:zoom="5.6"
     inkscape:window-x="20"
     showgrid="false"
     borderopacity="1.0"
     inkscape:current-layer="layer1"
     inkscape:cx="18.243351"
     inkscape:cy="35.076907"
     fit-margin-top="1"
     fit-margin-right="1"
     fit-margin-bottom="1"
     inkscape:window-width="1524"
     inkscape:pageopacity="0.0"
     inkscape:document-units="px" />
  <g
     id="layer1"
     inkscape:label="Layer 1"
     inkscape:groupmode="layer"
     transform="translate(-227.72,-446.03)">
    <path
       id="path3089"
       style="fill:url(#radialGradient3814);fill-rule:evenodd;stroke:#000000;stroke-width:0.07506011"
       inkscape:connector-curvature="0"
       d="m 239.12809,452.78531 -0.42221,1.04618 c -0.39316,0.083 -0.76831,0.20923 -1.12591,0.37061 l -0.91272,-0.63125 -1.23617,0.89367 0.28148,1.10945 c -0.24149,0.27134 -0.45527,0.56706 -0.64036,0.88196 l -1.08132,-0.002 -0.51135,1.43786 0.8632,0.75525 c -0.0221,0.20097 -0.0328,0.40531 -0.0328,0.61221 0,0.25241 0.019,0.50009 0.0516,0.74356 l -0.86552,0.69665 0.50431,1.44025 1.14467,0.0445 c 0.20147,0.32377 0.43487,0.62606 0.69665,0.90073 l -0.2932,1.04618 1.24555,0.87963 0.95236,-0.62158 c 0.34085,0.14035 0.69861,0.24855 1.0696,0.319 l 0.38703,1.02975 1.52703,-0.0328 0.38702,-1.04379 c 0.40002,-0.0929 0.78303,-0.22687 1.14467,-0.4011 l 0.89367,0.59579 1.22122,-0.91873 -0.29574,-1.08538 c 0.27282,-0.3203 0.51098,-0.67152 0.70604,-1.04851 l 1.06495,-0.0563 0.43394,-1.46367 -0.89135,-0.699 c 0.007,-0.10774 0.009,-0.21675 0.009,-0.32605 0,-0.28311 -0.02,-0.56114 -0.061,-0.83271 l 0.83738,-0.69665 -0.52543,-1.4308 -1.12589,-0.0281 c -0.18766,-0.29273 -0.40233,-0.5667 -0.64027,-0.8189 l 0.2979,-1.03913 -1.24082,-0.88661 -0.94764,0.61455 c -0.31462,-0.13172 -0.64424,-0.23501 -0.98516,-0.30728 l -0.36123,-1.03913 -1.52462,-0.009 z m -1.01782,1.82245 c 0.29381,0 0.53247,0.23866 0.53247,0.53246 0,0.29381 -0.23866,0.53011 -0.53247,0.53011 -0.29381,0 -0.53245,-0.2363 -0.53245,-0.53011 0,-0.2938 0.23864,-0.53246 0.53245,-0.53246 z m 5.25196,1.29029 c 0.29381,0 0.53246,0.23865 0.53246,0.53246 0,0.29381 -0.23865,0.53011 -0.53246,0.53011 -0.29381,0 -0.53011,-0.2363 -0.53011,-0.53011 0,-0.29381 0.2363,-0.53246 0.53011,-0.53246 z m -3.50441,0.75525 c 1.4299,0 2.58958,1.15735 2.58958,2.58725 0,1.42989 -1.15968,2.58958 -2.58958,2.58958 -1.42989,0 -2.58957,-1.15969 -2.58957,-2.58958 0,-1.4299 1.15968,-2.58725 2.58957,-2.58725 z m -4.42149,2.76784 c 0.29381,0 0.53247,0.23866 0.53247,0.53246 0,0.29382 -0.23866,0.53012 -0.53247,0.53012 -0.2938,0 -0.53246,-0.2363 -0.53246,-0.53012 0,-0.2938 0.23866,-0.53246 0.53246,-0.53246 z m 8.14627,1.69824 c 0.29381,0 0.53247,0.23865 0.53247,0.53246 0,0.29381 -0.23866,0.53246 -0.53247,0.53246 -0.2938,0 -0.5301,-0.23865 -0.5301,-0.53246 0,-0.29381 0.2363,-0.53246 0.5301,-0.53246 z m -4.65522,1.88851 c 0.2938,0 0.53246,0.23866 0.53246,0.53246 0,0.29381 -0.23866,0.53011 -0.53246,0.53011 -0.29381,0 -0.53011,-0.2363 -0.53011,-0.53011 0,-0.2938 0.2363,-0.53246 0.53011,-0.53246 z" />
  </g>
  <metadata
     id="metadata10">
    <rdf:RDF>
      <cc:Work>
        <dc:format>image/svg+xml</dc:format>
        <dc:type
           rdf:resource="http://purl.org/dc/dcmitype/StillImage" />
        <cc:license
           rdf:resource="http://creativecommons.org/publicdomain/zero/1.0/" />
        <dc:publisher>
          <cc:Agent
             rdf:about="http://openclipart.org/">
            <dc:title>Openclipart</dc:title>
          </cc:Agent>
        </dc:publisher>
        <dc:title></dc:title>
      </cc:Work>
      <cc:License
         rdf:about="http://creativecommons.org/publicdomain/zero/1.0/">
        <cc:permits
           rdf:resource="http://creativecommons.org/ns#Reproduction" />
        <cc:permits
           rdf:resource="http://creativecommons.org/ns#Distribution" />
        <cc:permits
           rdf:resource="http://creativecommons.org/ns#DerivativeWorks" />
      </cc:License>
    </rdf:RDF>
  </metadata>
</svg>
